<svg width="24" height="24" viewBox="0 0 24 24" fill="none" xmlns="http://www.w3.org/2000/svg">
<path d="M12 21L11.6538 20.7752C11.2996 20.5504 3 15.1495 3 9.37094C3 6.40973 5.17428 4 7.84615 4C9.60667 4 11.1508 5.04602 12 6.60755C12.8492 5.04602 14.3933 4 16.1538 4C18.8257 4 21 6.40973 21 9.37094C21 15.1495 12.7004 20.5504 12.3462 20.7752L12 21Z" stroke="#21201F" stroke-width="1.5" stroke-linecap="round"/>
<path d="M16.5 22L16.2885 21.8678C16.072 21.7355 11 18.5585 11 15.1594C11 13.4175 12.3287 12 13.9615 12C15.0374 12 15.9811 12.6153 16.5 13.5339C17.0189 12.6153 17.9626 12 19.0385 12C20.6713 12 22 13.4175 22 15.1594C22 18.5585 16.928 21.7355 16.7115 21.8678L16.5 22Z" fill="#21201F"/>
</svg>
