<svg width="24" height="24" viewBox="0 0 24 24" fill="none" xmlns="http://www.w3.org/2000/svg">
<path d="M2.8 10C2.8 8.78497 3.78497 7.8 5 7.8H19C20.215 7.8 21.2 8.78497 21.2 10V18C21.2 19.7673 19.7673 21.2 18 21.2H6C4.23269 21.2 2.8 19.7673 2.8 18V10Z" stroke="black" stroke-width="1.6"/>
<path d="M8.8 5C8.8 3.23269 10.2327 1.8 12 1.8C13.7673 1.8 15.2 3.23269 15.2 5V7.8H8.8V5Z" stroke="black" stroke-width="1.6"/>
<path d="M16.2381 7.25586L14.496 12.6997H10.4L10 14.2997H13.984L12.608 18.5997H14.288L15.664 14.2997H21V12.6997H16.176L17.7619 7.7435L16.2381 7.25586Z" fill="black"/>
</svg>
