<svg width="24" height="24" viewBox="0 0 24 24" fill="none" xmlns="http://www.w3.org/2000/svg">
<g clip-path="url(#clip0_484_86592)">
<path d="M1.34457 12.7487L1.8749 13.279L1.34457 12.7487ZM12.6148 1.4785L12.0844 0.948167L12.6148 1.4785ZM15.4432 1.4785L14.9129 2.00883L15.4432 1.4785ZM17.4387 3.47396L17.9959 3.97591C18.263 3.67943 18.2511 3.22578 17.969 2.94363L17.4387 3.47396ZM20.2632 6.29848L20.7935 5.76815C20.5114 5.48601 20.0577 5.47417 19.7612 5.74121L20.2632 6.29848ZM22.2612 8.29649L21.7309 8.82682L22.2612 8.29649ZM22.2612 11.1249L22.7915 11.6553L22.2612 11.1249ZM10.991 22.3951L10.4607 21.8648L10.991 22.3951ZM8.16257 22.3951L7.63224 22.9254L8.16257 22.3951ZM6.05669 20.2892L5.51607 19.7694C5.23294 20.0638 5.23751 20.5307 5.52636 20.8196L6.05669 20.2892ZM3.22881 17.4614L2.69848 17.9917C2.98733 18.2805 3.4542 18.2851 3.74865 18.002L3.22881 17.4614ZM0.814242 12.2184C-0.2597 13.2923 -0.259697 15.0335 0.814244 16.1074L1.8749 15.0468C1.38675 14.5586 1.38675 13.7672 1.8749 13.279L0.814242 12.2184ZM12.0844 0.948167L0.814242 12.2184L1.8749 13.279L13.1451 2.00883L12.0844 0.948167ZM15.9735 0.948168C14.8996 -0.125773 13.1584 -0.125777 12.0844 0.948167L13.1451 2.00883C13.6332 1.52067 14.4247 1.52067 14.9129 2.00883L15.9735 0.948168ZM17.969 2.94363L15.9735 0.948168L14.9129 2.00883L16.9083 4.00429L17.969 2.94363ZM18.042 5.69513C17.5697 5.22286 17.5543 4.46616 17.9959 3.97591L16.8814 2.97202C15.9085 4.0521 15.9418 5.71627 16.9813 6.75579L18.042 5.69513ZM19.7612 5.74121C19.271 6.1828 18.5143 6.1674 18.042 5.69513L16.9813 6.75579C18.0209 7.79532 19.685 7.82861 20.7651 6.85575L19.7612 5.74121ZM22.7915 7.76616L20.7935 5.76815L19.7328 6.82881L21.7309 8.82682L22.7915 7.76616ZM22.7915 11.6553C23.8655 10.5813 23.8655 8.8401 22.7915 7.76616L21.7309 8.82682C22.219 9.31498 22.219 10.1064 21.7309 10.5946L22.7915 11.6553ZM11.5213 22.9254L22.7915 11.6553L21.7309 10.5946L10.4607 21.8648L11.5213 22.9254ZM7.63224 22.9254C8.70618 23.9994 10.4474 23.9994 11.5213 22.9254L10.4607 21.8648C9.97251 22.3529 9.18106 22.3529 8.6929 21.8648L7.63224 22.9254ZM5.52636 20.8196L7.63224 22.9254L8.6929 21.8648L6.58702 19.7589L5.52636 20.8196ZM5.49837 18.0197C5.98057 18.5019 5.98645 19.2802 5.51607 19.7694L6.59731 20.8091C7.63283 19.7321 7.62005 18.02 6.55903 16.959L5.49837 18.0197ZM3.74865 18.002C4.23784 17.5316 5.01618 17.5375 5.49837 18.0197L6.55903 16.959C5.49801 15.898 3.7859 15.8852 2.70898 16.9207L3.74865 18.002ZM0.814244 16.1074L2.69848 17.9917L3.75914 16.931L1.8749 15.0468L0.814244 16.1074Z" fill="#21201F"/>
<path d="M10.0462 13.6471C10.632 14.2329 10.632 15.1826 10.0462 15.7684C9.46039 16.3542 8.51064 16.3542 7.92486 15.7684C7.33907 15.1826 7.33907 14.2329 7.92486 13.6471C8.51064 13.0613 9.46039 13.0613 10.0462 13.6471Z" fill="#21201F"/>
<path d="M12.8746 10.8187C13.4604 11.4045 13.4604 12.3542 12.8746 12.94C12.2888 13.5258 11.3391 13.5258 10.7533 12.94C10.1675 12.3542 10.1675 11.4045 10.7533 10.8187C11.3391 10.2329 12.2888 10.2329 12.8746 10.8187Z" fill="#21201F"/>
<path d="M15.703 7.99024C16.2888 8.57603 16.2888 9.52578 15.703 10.1116C15.1173 10.6973 14.1675 10.6973 13.5817 10.1116C12.9959 9.52578 12.9959 8.57603 13.5817 7.99024C14.1675 7.40446 15.1173 7.40446 15.703 7.99024Z" fill="#21201F"/>
</g>
<defs>
<clipPath id="clip0_484_86592">
<rect width="24" height="24" fill="white"/>
</clipPath>
</defs>
</svg>
