<svg width="24" height="24" viewBox="0 0 24 24" fill="none" xmlns="http://www.w3.org/2000/svg">
<path d="M21 12V7C21 4.79086 19.2091 3 17 3H12M21 12V17C21 19.2091 19.2091 21 17 21H12M21 12H12M3 12V17C3 19.2091 4.79086 21 7 21H12M3 12V7C3 4.79086 4.79086 3 7 3H12M3 12H12M12 3V7V12M12 21V12M12 12C12 12 11 15 7 17M12 12C12 12 13 15 17 17" stroke="#21201F" stroke-width="1.5" stroke-linecap="round"/>
<path d="M11.9999 12C11.9999 12 8.75072 12.2864 7.23211 10.7678C6.2558 9.79147 6.2558 8.20856 7.23211 7.23224C8.20842 6.25593 9.79133 6.25593 10.7676 7.23224C12.267 8.73164 11.9999 12 11.9999 12Z" stroke="#21201F" stroke-width="1.5"/>
<path d="M12 12C12 12 15.2644 12.2711 16.7678 10.7678C17.7441 9.79147 17.7441 8.20856 16.7678 7.23224C15.7915 6.25593 14.2085 6.25593 13.2322 7.23224C11.873 8.59149 12 12 12 12Z" stroke="#21201F" stroke-width="1.5"/>
</svg>
