<svg width="24" height="24" viewBox="0 0 24 24" fill="none" xmlns="http://www.w3.org/2000/svg">
<path fill-rule="evenodd" clip-rule="evenodd" d="M3.66548 15.871L5.10378 16.0962C6.16552 16.2625 6.92376 17.235 6.84557 18.3305L6.73961 19.8155C6.70874 20.2481 6.9392 20.6554 7.32089 20.8437L8.38469 21.3679C8.76639 21.5562 9.22215 21.4857 9.53389 21.1921L10.6028 20.1818C11.3909 19.4366 12.607 19.4366 13.3961 20.1818L14.465 21.1921C14.7768 21.4868 15.2315 21.5562 15.6142 21.3679L16.6801 20.8427C17.0608 20.6554 17.2902 20.2491 17.2593 19.8176L17.1534 18.3305C17.0752 17.235 17.8334 16.2625 18.8951 16.0962L20.3334 15.871C20.7522 15.8058 21.0896 15.4848 21.1843 15.0617L21.4466 13.8851C21.5413 13.462 21.3736 13.0231 21.0238 12.779L19.8231 11.9381C18.9373 11.3171 18.6667 10.1047 19.2017 9.15228L19.9271 7.862C20.138 7.48628 20.103 7.01585 19.8386 6.67696L19.103 5.73293C18.8386 5.39405 18.3982 5.25408 17.9929 5.38142L16.6019 5.81713C15.5741 6.13917 14.4784 5.59927 14.0833 4.57736L13.5504 3.19552C13.394 2.79139 13.0123 2.52617 12.5874 2.52722L11.4084 2.53038C10.9835 2.53143 10.6028 2.79875 10.4485 3.20394L9.92896 4.56999C9.538 5.59822 8.43716 6.14233 7.40628 5.81818L5.9577 5.36353C5.55131 5.23513 5.10892 5.37616 4.84451 5.71714L4.11405 6.66223C3.84964 7.00427 3.81775 7.47576 4.03277 7.85148L4.77455 9.14491C5.32086 10.0984 5.05336 11.3224 4.1624 11.9465L2.97617 12.7779C2.62637 13.0231 2.45867 13.462 2.55333 13.884L2.81567 15.0606C2.9093 15.4848 3.24675 15.8058 3.66548 15.871V15.871Z" stroke="#21201F" stroke-width="1.5"/>
<path d="M9.5 12C9.5 12.5523 9.05228 13 8.5 13C7.94772 13 7.5 12.5523 7.5 12C7.5 11.4477 7.94772 11 8.5 11C9.05228 11 9.5 11.4477 9.5 12Z" fill="#21201F"/>
<path d="M13 12C13 12.5523 12.5523 13 12 13C11.4477 13 11 12.5523 11 12C11 11.4477 11.4477 11 12 11C12.5523 11 13 11.4477 13 12Z" fill="#21201F"/>
<path d="M16.5 12C16.5 12.5523 16.0523 13 15.5 13C14.9477 13 14.5 12.5523 14.5 12C14.5 11.4477 14.9477 11 15.5 11C16.0523 11 16.5 11.4477 16.5 12Z" fill="#21201F"/>
</svg>
